HIERARCHY
ROOT joint_Root
{
	OFFSET 0.0 0.0 0.0
	CHANNELS 6 Xposition Yposition Zposition Zrotation Xrotation Yrotation 
	JOINT Hips
	{
		OFFSET 4.5925 91.4895 -427.239
		CHANNELS 6 Xposition Yposition Zposition Zrotation Xrotation Yrotation 
		JOINT Spine
		{
			OFFSET 15.7357 0.0 0.0
			CHANNELS 6 Xposition Yposition Zposition Zrotation Xrotation Yrotation 
			JOINT Chest
			{
				OFFSET 8.98455 -0.406207 0.0
				CHANNELS 6 Xposition Yposition Zposition Zrotation Xrotation Yrotation 
				JOINT Neck
				{
					OFFSET 16.3773 0.0 0.0
					CHANNELS 6 Xposition Yposition Zposition Zrotation Xrotation Yrotation 
					JOINT Head
					{
						OFFSET 6.45672 0.0 0.0
						CHANNELS 6 Xposition Yposition Zposition Zrotation Xrotation Yrotation 
						End Site
						{
							OFFSET 0.0 0.0 0.0
						}
					}
				}
				JOINT Shoulder_L
				{
					OFFSET 12.9942 -0.242716 4.98039
					CHANNELS 6 Xposition Yposition Zposition Zrotation Xrotation Yrotation 
					JOINT UpperArm_L
					{
						OFFSET 5.34809 0.0 0.0
						CHANNELS 6 Xposition Yposition Zposition Zrotation Xrotation Yrotation 
						JOINT LowerArm_L
						{
							OFFSET 24.3286 1.87007e-05 0.0
							CHANNELS 6 Xposition Yposition Zposition Zrotation Xrotation Yrotation 
							JOINT Hand_L
							{
								OFFSET 22.2916 0.0 0.0
								CHANNELS 6 Xposition Yposition Zposition Zrotation Xrotation Yrotation 
								End Site
								{
									OFFSET 0.0 0.0 0.0
								}
							}
						}
					}
				}
				JOINT Shoulder_R
				{
					OFFSET 12.9945 -0.242716 -4.98039
					CHANNELS 6 Xposition Yposition Zposition Zrotation Xrotation Yrotation 
					JOINT UpperArm_R
					{
						OFFSET -5.34813 0.0 0.0
						CHANNELS 6 Xposition Yposition Zposition Zrotation Xrotation Yrotation 
						JOINT LowerArm_R
						{
							OFFSET -24.3289 0.000322201 0.0
							CHANNELS 6 Xposition Yposition Zposition Zrotation Xrotation Yrotation 
							JOINT Hand_R
							{
								OFFSET -22.2915 -0.000108084 0.0
								CHANNELS 6 Xposition Yposition Zposition Zrotation Xrotation Yrotation 
								End Site
								{
									OFFSET 0.0 0.0 0.0
								}
							}
						}
					}
				}
			}
		}
		JOINT UpperLeg_L
		{
			OFFSET -2.19248 -6.46944 0.0
			CHANNELS 6 Xposition Yposition Zposition Zrotation Xrotation Yrotation 
			JOINT LowerLeg_L
			{
				OFFSET 39.0811 0.0 -1.23785e-05
				CHANNELS 6 Xposition Yposition Zposition Zrotation Xrotation Yrotation 
				JOINT Foot_L
				{
					OFFSET 40.9854 0.0 -1.26872e-05
					CHANNELS 6 Xposition Yposition Zposition Zrotation Xrotation Yrotation 
					JOINT Toes_L
					{
						OFFSET 11.7543 0.0 0.0
						CHANNELS 6 Xposition Yposition Zposition Zrotation Xrotation Yrotation 
						End Site
						{
							OFFSET 0.0 0.0 0.0
						}
					}
				}
			}
		}
		JOINT UpperLeg_R
		{
			OFFSET -2.19251 6.46944 0.0
			CHANNELS 6 Xposition Yposition Zposition Zrotation Xrotation Yrotation 
			JOINT LowerLeg_R
			{
				OFFSET -39.0811 -0.00228153 -0.0401928
				CHANNELS 6 Xposition Yposition Zposition Zrotation Xrotation Yrotation 
				JOINT Foot_R
				{
					OFFSET -40.9854 0.0 0.0
					CHANNELS 6 Xposition Yposition Zposition Zrotation Xrotation Yrotation 
					JOINT Toes_R
					{
						OFFSET -11.7543 0.0 0.0
						CHANNELS 6 Xposition Yposition Zposition Zrotation Xrotation Yrotation 
						End Site
						{
							OFFSET 0.0 0.0 0.0
						}
					}
				}
			}
		}
	}
}
MOTION
Frames:	6
Frame Time:	0.0333333
0.000000 0.000000 0.000000 0.000000 0.000000 -0.000000 -5.209770 82.938100 0.268471 86.402100 -0.875645 11.259900 15.735700 0.000005 -0.000001 78.833000 81.777900 -78.351100 8.984550 -0.406207 -0.000000 8.390050 -3.167380 1.195360 16.377300 -0.000001 -0.000001 0.667947 -1.606090 1.051630 6.456720 -0.000001 -0.000000 -2.363410 2.422250 -2.942120 12.994200 -0.242716 4.980390 -91.104600 3.699830 -73.363900 5.348090 -0.000007 -0.000001 -61.965600 34.603300 -17.250700 24.328600 0.000019 0.000005 7.643530 21.293900 -20.280700 22.291600 -0.000001 0.000005 13.614100 5.140390 4.171550 12.994500 -0.242716 -4.980390 87.542900 10.651100 -76.929000 -5.348130 -0.000001 -0.000004 -59.245300 13.808600 -9.674830 -24.328900 0.000322 -0.000009 -1.743430 -7.747270 -12.692800 -22.291500 -0.000108 -0.000004 8.203750 5.375430 -2.104790 -2.192480 -6.469440 -0.000000 -167.732000 -8.773470 -12.947400 39.081100 -0.000007 -0.000012 -0.455270 0.264292 59.865200 40.985400 -0.000006 -0.000013 -1.738440 7.131870 -85.016200 11.754300 -0.000000 0.000003 -0.000117 -0.001177 -16.622600 -2.192510 6.469440 -0.000001 -176.533000 13.246000 167.922000 -39.081100 -0.002282 -0.040193 0.099427 -0.058415 58.738000 -40.985400 0.000008 0.000006 8.986350 -0.894062 -85.274800 -11.754300 -0.000006 -0.000006 -0.266088 -0.332254 -17.281100
0.000000 0.000000 0.000000 0.000000 0.000000 -0.000000 -5.616370 85.429200 1.041000 86.466300 0.620945 10.363500 15.735700 0.000005 -0.000001 78.048700 83.091000 -78.586300 8.984550 -0.406207 -0.000000 5.744870 -2.844820 -0.931479 16.377300 -0.000001 -0.000001 2.732000 -1.790910 0.975255 6.456720 -0.000001 -0.000000 -0.544179 1.372160 -1.551230 12.994200 -0.242716 4.980390 -90.976000 3.045580 -72.219200 5.348090 -0.000007 -0.000001 -64.723700 31.188600 -14.488100 24.328600 0.000019 0.000005 6.672450 20.007100 -18.877300 22.291600 -0.000001 0.000005 13.322400 5.116340 4.735490 12.994500 -0.242716 -4.980390 87.869800 8.747060 -76.253400 -5.348130 -0.000001 -0.000004 -55.630600 9.579450 -10.880300 -24.328900 0.000322 -0.000009 -0.706520 -4.682070 -8.577760 -22.291500 -0.000108 -0.000004 3.104870 5.325770 -0.646264 -2.192480 -6.469440 -0.000000 -168.057000 -7.610870 -9.856090 39.081100 -0.000007 -0.000012 -0.381216 0.297570 52.026000 40.985400 -0.000006 -0.000013 -2.298120 7.240690 -81.403200 11.754300 -0.000000 0.000003 -0.000079 -0.000840 -16.609900 -2.192510 6.469440 -0.000001 -176.856000 15.266300 171.469000 -39.081100 -0.002282 -0.040193 0.085553 -0.066807 50.935200 -40.985400 0.000008 0.000006 9.158670 0.522937 -81.679100 -11.754300 -0.000006 -0.000006 -0.431059 -0.532156 -17.604900
0.000000 0.000000 0.000000 0.000000 0.000000 -0.000000 -5.720530 87.892900 1.653250 86.961900 1.419290 8.643830 15.735700 0.000005 -0.000001 75.979500 84.593600 -77.625800 8.984550 -0.406207 -0.000000 2.692680 -2.544430 -3.229840 16.377300 -0.000001 -0.000001 4.802540 -2.006730 1.072550 6.456720 -0.000001 -0.000000 1.231480 0.396412 -0.007469 12.994200 -0.242716 4.980390 -90.635300 1.851080 -71.050100 5.348090 -0.000007 -0.000001 -67.361400 27.224000 -10.416800 24.328600 0.000019 0.000005 6.240130 17.464300 -20.021000 22.291600 -0.000001 0.000005 11.585000 5.164120 3.594220 12.994500 -0.242716 -4.980390 88.343400 6.393460 -75.438900 -5.348130 -0.000001 -0.000004 -48.782800 2.215110 -14.909100 -24.328900 0.000322 -0.000009 -0.724843 -5.230430 -7.888490 -22.291500 -0.000108 -0.000004 2.732300 5.252900 1.348270 -2.192480 -6.469440 -0.000000 -169.031000 -7.244860 -6.891280 39.081100 -0.000007 -0.000012 -0.299889 0.321711 42.990000 40.985400 -0.000006 -0.000013 -2.792400 6.986840 -77.150100 11.754300 -0.000000 0.000003 -0.000042 -0.000490 -16.596600 -2.192510 6.469440 -0.000001 -177.382000 16.529600 174.275000 -39.081100 -0.002282 -0.040193 0.068090 -0.070789 42.479000 -40.985400 0.000008 0.000006 9.024820 2.169740 -77.241700 -11.754300 -0.000006 -0.000006 -0.568478 -0.696137 -18.179900
0.000000 0.000000 0.000000 0.000000 0.000000 -0.000000 -5.538860 89.708300 1.848060 87.198700 1.863680 6.556060 15.735700 0.000005 -0.000001 70.888700 85.883100 -73.168300 8.984550 -0.406207 -0.000000 -0.031845 -2.540050 -4.557610 16.377300 -0.000001 -0.000001 5.972230 -2.196430 0.746974 6.456720 -0.000001 -0.000000 2.569130 -0.271748 0.726423 12.994200 -0.242716 4.980390 -90.491400 1.363660 -70.182100 5.348090 -0.000007 -0.000001 -68.495400 24.352800 -6.606580 24.328600 0.000019 0.000005 5.736690 14.490700 -21.877000 22.291600 -0.000001 0.000005 9.604150 5.210890 2.442630 12.994500 -0.242716 -4.980390 88.868400 4.366090 -75.459900 -5.348130 -0.000001 -0.000004 -38.676800 -7.481800 -20.958700 -24.328900 0.000322 -0.000009 -1.527430 -8.267870 -10.480700 -22.291500 -0.000108 -0.000004 6.112330 5.262120 1.152320 -2.192480 -6.469440 -0.000000 -169.904000 -7.284320 -5.160930 39.081100 -0.000007 -0.000012 -0.222059 0.313673 35.296300 40.985400 -0.000006 -0.000013 -3.022760 6.644670 -73.336600 11.754300 -0.000000 0.000003 -0.000026 -0.000316 -16.589900 -2.192510 6.469440 -0.000001 -177.742000 18.454600 175.612000 -39.081100 -0.002282 -0.040193 0.053491 -0.070094 35.610400 -40.985400 0.000008 0.000006 8.874410 4.647930 -72.969500 -11.754300 -0.000006 -0.000006 -0.865929 -1.038720 -19.000900
0.000000 0.000000 0.000000 0.000000 0.000000 -0.000000 -5.291560 90.710300 1.728560 87.184600 1.626430 4.801040 15.735700 0.000005 -0.000001 69.259400 86.828600 -71.719000 8.984550 -0.406207 -0.000000 -1.873630 -2.038890 -4.951880 16.377300 -0.000001 -0.000001 6.095520 -2.242400 0.056439 6.456720 -0.000001 -0.000000 3.165920 -0.911152 0.618428 12.994200 -0.242716 4.980390 -90.630700 1.701580 -69.661800 5.348090 -0.000007 -0.000001 -67.893100 23.469900 -4.528160 24.328600 0.000019 0.000005 5.345390 12.971300 -22.628400 22.291600 -0.000001 0.000005 9.093430 5.231890 1.906560 12.994500 -0.242716 -4.980390 89.610200 1.667510 -76.866700 -5.348130 -0.000001 -0.000004 -28.073300 -19.688400 -24.766400 -24.328900 0.000322 -0.000009 -4.226590 -13.606000 -17.408900 -22.291500 -0.000108 -0.000004 11.203800 5.388730 -2.487820 -2.192480 -6.469440 -0.000000 -170.285000 -8.373060 -4.573350 39.081100 -0.000007 -0.000012 -0.193766 0.328657 30.522600 40.985400 -0.000006 -0.000013 -2.940650 6.840320 -70.837800 11.754300 -0.000000 0.000003 -0.000024 -0.000295 -16.589100 -2.192510 6.469440 -0.000001 -177.945000 20.520600 176.120000 -39.081100 -0.002282 -0.040193 0.039239 -0.059949 30.942400 -40.985400 0.000008 0.000006 8.724620 7.898170 -70.601500 -11.754300 -0.000006 -0.000006 -0.998003 -1.192710 -19.028600
0.000000 0.000000 0.000000 0.000000 0.000000 -0.000000 -5.042010 91.064200 1.534740 87.426900 1.149000 3.889280 15.735700 0.000005 -0.000001 76.259900 87.252100 -78.826400 8.984550 -0.406207 -0.000000 -2.446630 -1.076360 -5.155900 16.377300 -0.000001 -0.000001 5.347730 -2.389050 -0.446809 6.456720 -0.000001 -0.000000 2.837680 -1.380690 -0.055439 12.994200 -0.242716 4.980390 -90.975000 2.577580 -69.272000 5.348090 -0.000007 -0.000001 -65.756900 23.671300 -4.534270 24.328600 0.000019 0.000005 5.771160 14.222900 -22.360800 22.291600 -0.000001 0.000005 10.082800 5.219110 2.234080 12.994500 -0.242716 -4.980390 90.395500 -1.838710 -77.860800 -5.348130 -0.000001 -0.000004 -18.153800 -33.030100 -25.997800 -24.328900 0.000322 -0.000009 -7.584040 -13.974700 -28.876400 -22.291500 -0.000108 -0.000004 16.327300 5.522250 -7.338850 -2.192480 -6.469440 -0.000000 -170.590000 -10.410400 -4.540430 39.081100 -0.000007 -0.000012 -0.175972 0.322221 28.640200 40.985400 -0.000006 -0.000013 -2.536660 8.069860 -69.730100 11.754300 -0.000000 0.000003 -0.000026 -0.000322 -16.590100 -2.192510 6.469440 -0.000001 -178.580000 22.532400 176.850000 -39.081100 -0.002282 -0.040193 0.026048 -0.042701 28.038400 -40.985400 0.000008 0.000006 8.968280 10.821800 -70.883700 -11.754300 -0.000006 -0.000006 -0.211793 -0.279781 -18.198200
